<?xml version="1.0" encoding="utf-8"?>
<svg xmlns="http://www.w3.org/2000/svg" viewBox="0 0 500 500">
  <path d="M 262.473 32.358 C 263.324 32.358 264.173 32.358 265.049 32.358 C 277.619 32.387 289.674 32.859 301.989 35.586 C 302.754 35.741 303.521 35.902 304.31 36.064 C 319.853 39.285 334.427 44.289 348.414 51.795 C 349.111 52.148 349.807 52.5 350.524 52.864 C 367.1 61.434 382.209 74.446 393.365 89.379 C 394.043 88.987 394.722 88.595 395.42 88.191 C 406.865 81.734 418.224 78.587 431.363 81.021 C 436.481 82.529 440.288 85.081 444.212 88.642 C 444.673 89.027 445.136 89.413 445.611 89.81 C 450.92 94.561 454.731 102.225 455.513 109.307 C 455.644 119.803 451.852 126.811 444.92 134.528 C 440.934 138.437 436.39 141.293 431.639 144.185 C 430.711 144.751 430.711 144.751 429.766 145.33 C 425.861 147.632 422.045 149.306 417.683 150.541 C 417.805 151.24 417.805 151.24 417.931 151.952 C 420.785 168.44 422.438 184.646 422.105 201.388 C 422.651 201.376 423.197 201.364 423.76 201.353 C 426.233 201.307 428.705 201.277 431.178 201.25 C 432.038 201.231 432.897 201.213 433.784 201.193 C 434.609 201.186 435.432 201.179 436.282 201.173 C 437.421 201.154 437.421 201.154 438.586 201.137 C 440.527 201.388 440.527 201.388 441.875 202.326 C 443.085 204.11 443.077 205.883 443.176 207.994 C 442.431 210.544 441.38 211.164 439.053 212.441 C 436.14 212.797 433.278 212.717 430.348 212.626 C 427.629 212.564 424.909 212.504 422.105 212.441 C 422.105 222.899 422.105 233.354 422.105 244.128 C 423.32 244.372 424.537 244.615 425.789 244.865 C 427.815 245.695 427.815 245.695 429.474 247.076 C 430.435 250.129 430.546 251.563 429.106 254.445 C 427.263 255.919 427.263 255.919 424.569 255.643 C 423.35 255.413 423.35 255.413 422.105 255.182 C 421.97 262.015 421.925 266.944 426.791 272.133 C 434.39 280.755 440.425 291.407 445.686 301.607 C 445.978 302.171 446.271 302.737 446.571 303.319 C 456.262 322.311 463.312 342.982 466.641 364.06 C 466.763 364.822 466.883 365.584 467.008 366.369 C 468.911 379.617 467.704 391.786 460.424 403.3 C 454.406 411.156 445.617 415.777 436 417.725 C 419.879 419.504 419.879 419.504 415.472 417.301 C 415.413 417.785 415.353 418.267 415.291 418.765 C 413.276 426.813 407.751 434.876 402.208 440.881 C 401.567 441.591 400.924 442.3 400.262 443.032 C 395.572 448.048 390.509 451.92 384.707 455.576 C 382.849 456.753 381.093 457.952 379.364 459.305 C 379.821 459.943 380.277 460.581 380.746 461.24 C 384.52 467.233 384.684 473.824 383.356 480.677 C 381.251 487.434 376.772 492.82 370.521 496.149 C 360.494 500.545 349.338 499.961 338.615 499.984 C 337.937 499.986 337.257 499.987 336.557 499.99 C 332.961 500.001 329.365 500.007 325.771 500.012 C 322.086 500.015 318.4 500.032 314.717 500.054 C 311.855 500.067 308.996 500.072 306.136 500.072 C 304.779 500.075 303.42 500.081 302.063 500.091 C 290.678 500.166 279.724 500.146 271.043 491.786 C 268.255 488.796 266.506 485.994 265.143 482.149 C 263.954 483.934 263.021 485.633 262.058 487.538 C 259.09 492.883 254.629 496.239 248.931 498.36 C 241.316 500.293 233.518 500.049 225.725 500.03 C 224.342 500.032 222.959 500.032 221.576 500.034 C 218.688 500.037 215.799 500.034 212.913 500.026 C 209.238 500.018 205.567 500.023 201.893 500.032 C 199.039 500.037 196.186 500.035 193.332 500.032 C 191.978 500.03 190.626 500.032 189.272 500.035 C 163.275 500.087 163.275 500.087 153.853 491.149 C 148.397 485.035 146.872 478.235 146.942 470.206 C 147.36 466.266 148.763 463.32 150.924 460.042 C 150.228 459.692 149.533 459.343 148.817 458.985 C 131.745 450.263 118.808 437.936 112.605 419.512 C 110.294 412.043 108.431 404.43 107.446 396.668 C 107.364 396.083 107.282 395.501 107.199 394.899 C 106.328 387.438 106.645 379.85 106.709 372.35 C 106.121 372.546 105.532 372.741 104.924 372.942 C 88.603 378.191 71.455 379.071 55.582 371.843 C 48.036 367.746 42.997 362.147 38.914 354.664 C 38.619 354.127 38.325 353.591 38.023 353.039 C 32.51 341.876 31.391 325.994 35.273 314.18 C 37.108 309.937 39.415 306.421 42.599 303.081 C 43.04 302.612 43.475 302.144 43.933 301.661 C 49.886 295.888 56.393 293.93 64.521 294.007 C 66.547 294.055 68.575 294.136 70.601 294.238 C 70.387 293.506 70.174 292.775 69.952 292.021 C 67.808 284.302 65.48 275.268 69.01 267.612 C 72.457 262.062 76.798 257.856 83.128 255.919 C 86.858 255.358 89.952 255.319 93.398 256.932 C 97.725 262.437 98.26 268.384 98.234 275.17 C 98.208 282.259 99 287.318 103.854 292.718 C 104.221 293.134 104.587 293.552 104.965 293.982 C 105.956 295.061 105.956 295.061 107.446 295.712 C 107.442 294.974 107.439 294.237 107.435 293.478 C 107.367 279.463 107.362 265.493 108.183 251.497 C 107.543 251.771 106.903 252.046 106.243 252.328 C 105.393 252.678 104.544 253.027 103.669 253.386 C 102.832 253.736 101.993 254.086 101.131 254.447 C 98.396 255.242 96.886 255.287 94.182 254.445 C 92.467 251.872 92.338 250.84 92.708 247.813 C 94.991 244.879 97.889 243.741 101.275 242.47 C 101.776 242.271 102.277 242.074 102.795 241.871 C 106.48 240.444 106.48 240.444 108.183 240.444 C 108.183 231.203 108.183 221.963 108.183 212.441 C 101.558 212.557 101.558 212.557 94.934 212.706 C 94.105 212.714 93.277 212.722 92.422 212.729 C 91.577 212.745 90.732 212.76 89.863 212.776 C 87.049 212.369 85.855 211.49 83.865 209.494 C 83.084 207.328 83.084 207.328 83.128 205.072 C 84.278 203.111 84.278 203.111 86.076 201.388 C 88.507 200.969 88.507 200.969 91.362 201.028 C 91.864 201.032 92.367 201.038 92.885 201.043 C 94.484 201.065 96.083 201.109 97.682 201.157 C 98.769 201.176 99.856 201.193 100.943 201.208 C 103.603 201.248 106.261 201.311 108.92 201.388 C 108.907 200.819 108.897 200.252 108.884 199.666 C 108.812 193.434 109.248 187.361 109.933 181.169 C 110.073 179.834 110.073 179.834 110.215 178.474 C 110.873 172.332 111.694 166.229 112.605 160.121 C 111.376 159.426 111.376 159.426 110.124 158.715 C 98.929 152.308 87.977 145.431 83.128 132.855 C 81.057 124.658 82.289 117.04 86.312 109.715 C 91.658 101.17 98.899 97.753 108.416 94.579 C 117.299 94.04 124.783 93.179 133.238 96.01 C 133.421 95.494 133.605 94.979 133.793 94.447 C 137.216 86.541 143.544 80.025 149.45 73.904 C 149.962 73.345 150.472 72.787 150.999 72.214 C 171.399 50.593 202.363 38.488 231.247 34.112 C 232.095 33.98 232.944 33.847 233.82 33.714 C 243.343 32.373 252.869 32.344 262.473 32.358 Z" fill="#00C5C2" style="stroke-width: 1px;"/>
  <path d="M 188.832 208.048 C 199.931 192.098 222.653 184.705 222.404 185.221 C 221.024 189.276 221.372 192.889 223.025 196.84 C 226.536 203.435 231.427 207.414 237.879 210.967 C 238.378 211.261 238.879 211.556 239.396 211.86 C 249.937 217.69 263.592 217.667 275.015 214.584 C 285.332 211.451 293.752 205.672 299.041 196.229 C 299.916 193.605 299.849 191.485 299.825 188.721 C 299.818 187.784 299.812 186.846 299.805 185.881 C 299.797 185.163 299.788 184.442 299.778 183.702 C 311.198 186.242 325.8 191.636 332.939 201.388 C 338.293 210.881 340.45 219.488 338.356 230.409 C 335.738 238.264 329.838 244.987 322.665 249.036 C 311.314 254.596 298.041 256.695 285.725 253.045 C 276.877 249.719 269.555 244.988 262.934 238.233 C 260.553 239.275 259.048 240.545 257.222 242.378 C 246.103 252.434 232.184 254.545 217.71 253.864 C 208.319 253.108 198.51 248.168 192.191 241.181 C 185.873 232.805 185.39 219.611 188.832 208.048 Z" fill="#4EE6DC" style="stroke-width: 1px;"/>
  <path d="M 378.789 459.03 C 380.325 460.213 380.912 461.186 381.714 462.942 C 381.952 463.451 382.191 463.96 382.436 464.482 C 384.818 470.131 384.55 476.898 382.727 482.702 C 379.97 489.257 375.145 494.123 368.657 496.967 C 359.046 500.433 348.683 499.963 338.615 499.984 C 337.937 499.986 337.257 499.987 336.557 499.99 C 332.961 500.001 329.365 500.007 325.771 500.012 C 322.086 500.015 318.4 500.032 314.717 500.054 C 311.855 500.067 308.996 500.072 306.136 500.072 C 304.779 500.075 303.42 500.081 302.063 500.091 C 290.678 500.166 279.724 500.146 271.043 491.786 C 268.255 488.796 266.506 485.994 265.143 482.149 C 263.954 483.934 263.021 485.633 262.058 487.538 C 259.09 492.883 254.629 496.239 248.931 498.36 C 241.316 500.293 233.518 500.049 225.725 500.03 C 224.342 500.032 222.959 500.032 221.576 500.034 C 218.688 500.037 215.799 500.034 212.913 500.026 C 209.238 500.018 205.567 500.023 201.893 500.032 C 199.039 500.037 196.186 500.035 193.332 500.032 C 191.978 500.03 190.626 500.032 189.272 500.035 C 163.275 500.087 163.275 500.087 153.853 491.149 C 148.397 485.035 146.872 478.235 146.942 470.206 C 147.36 466.266 148.763 463.32 150.924 460.042 C 154.236 460.504 157.206 461.354 160.365 462.436 C 193.111 473.042 229.594 472.342 263.671 471.831 C 264.381 471.821 265.094 471.811 265.828 471.799 C 271.357 471.714 276.887 471.615 282.416 471.509 C 283.164 471.495 283.913 471.48 284.686 471.466 C 300.549 471.153 316.293 470.558 332.065 468.746 C 332.765 468.666 333.467 468.587 334.188 468.505 C 348.283 466.885 362.102 464.62 375.256 459.073 C 377.153 458.568 377.153 458.568 378.789 459.03 Z" fill="#048785" style="stroke-width: 1px;"/>
  <path d="M 93.398 256.932 C 97.725 262.437 98.26 268.384 98.234 275.17 C 98.214 280.752 98.305 285.133 101.551 289.816 C 102.43 290.701 103.315 291.581 104.204 292.456 C 107.31 295.982 107.416 298.853 107.294 303.416 C 107.296 304.164 107.296 304.913 107.298 305.684 C 107.293 308.14 107.254 310.595 107.213 313.051 C 107.203 314.761 107.196 316.471 107.191 318.181 C 107.171 322.668 107.12 327.155 107.063 331.643 C 107.011 336.227 106.988 340.811 106.961 345.395 C 106.906 354.38 106.818 363.365 106.709 372.35 C 105.196 372.823 103.683 373.295 102.171 373.765 C 100.906 374.16 100.906 374.16 99.617 374.563 C 84.617 378.994 67.329 378.215 53.468 370.692 C 46.954 366.544 42.591 361.399 38.914 354.664 C 38.619 354.127 38.325 353.591 38.023 353.039 C 32.51 341.876 31.391 325.994 35.273 314.18 C 37.108 309.937 39.415 306.421 42.599 303.081 C 43.04 302.612 43.475 302.144 43.933 301.661 C 49.886 295.888 56.393 293.93 64.521 294.007 C 66.547 294.055 68.575 294.136 70.601 294.238 C 70.387 293.506 70.174 292.775 69.952 292.021 C 67.808 284.302 65.48 275.268 69.01 267.612 C 74.123 259.381 83.467 252.283 93.398 256.932 Z" fill="#038886" style="stroke-width: 1px;"/>
  <path d="M 422.105 266.972 C 440.447 285.023 451.977 311.4 459.687 335.505 C 459.928 336.259 460.17 337.012 460.418 337.789 C 463.129 346.444 465.226 355.099 466.641 364.06 C 466.763 364.822 466.883 365.584 467.008 366.369 C 468.911 379.617 467.704 391.786 460.424 403.3 C 454.409 411.151 445.615 415.786 436 417.721 C 430.782 418.303 425.545 418.314 420.3 418.26 C 419.689 418.253 419.078 418.246 418.449 418.24 C 416.946 418.038 416.946 418.038 415.472 416.564 C 415.766 415.669 416.059 414.775 416.362 413.853 C 422.263 395.115 422.431 376.215 422.329 356.773 C 422.315 353.603 422.313 350.433 422.31 347.261 C 422.304 341.29 422.286 335.32 422.264 329.35 C 422.239 322.537 422.227 315.727 422.216 308.914 C 422.193 294.933 422.155 280.953 422.105 266.972 Z" fill="#038886" style="stroke-width: 1px;"/>
  <path d="M 259.233 171.663 C 260.867 171.681 262.5 171.678 264.135 171.674 C 276.523 171.698 290.323 173.509 299.502 182.689 C 301.252 186.987 301.433 191.486 299.838 195.884 C 298.943 197.58 297.96 199.102 296.83 200.651 C 296.511 201.103 296.19 201.556 295.86 202.024 C 289.159 210.634 277.931 215.442 267.354 216.863 C 253.363 217.983 240.699 215.345 229.497 206.361 C 224.82 201.984 221.222 196.494 220.746 190.058 C 221.042 185.752 222.621 183.278 225.674 180.339 C 234.99 172.653 247.624 171.53 259.233 171.663 Z" fill="#156565" style="stroke-width: 1px;"/>
  <path d="M 439.407 84.646 C 441.096 85.902 442.655 87.228 444.212 88.642 C 444.673 89.027 445.136 89.413 445.611 89.81 C 450.92 94.561 454.731 102.225 455.513 109.307 C 455.644 119.803 451.852 126.811 444.92 134.528 C 440.934 138.437 436.39 141.293 431.639 144.185 C 431.021 144.563 430.402 144.939 429.766 145.33 C 425.861 147.632 422.045 149.306 417.683 150.541 C 417.555 149.992 417.424 149.445 417.291 148.881 C 412.206 127.499 405.622 108.499 393.365 90.116 C 406.04 80.801 425.141 75.569 439.407 84.646 Z" fill="#048886" style="stroke-width: 1px;"/>
  <path d="M 198.086 132.855 C 202.531 136.627 205.159 141.692 205.738 147.47 C 205.863 150.221 205.869 152.967 205.839 155.721 C 205.823 157.442 205.839 159.161 205.857 160.882 C 205.872 168.866 205.168 176.511 199.387 182.598 C 194.328 186.885 188.117 189.28 181.473 189.087 C 175.142 188.293 169.831 185.577 165.662 180.754 C 161.03 174.078 160.228 167.515 160.229 159.534 C 160.226 158.06 160.2 156.584 160.172 155.112 C 160.148 147.023 161.503 140.921 167.136 134.937 C 176.192 126.677 187.866 125.714 198.086 132.855 Z" fill="#166364" style="stroke-width: 1px;"/>
  <path d="M 133.13 96.003 C 133.13 96.003 131.873 97.882 131.332 99.56 C 131.088 100.018 130.845 100.477 130.592 100.949 C 130.186 101.745 130.186 101.745 129.77 102.558 C 129.321 103.42 129.321 103.42 128.863 104.3 C 120.336 121.564 116.077 140.414 113.342 159.384 C 102.49 155.92 91.352 148.068 85.42 138.184 C 82.156 131.639 81.226 124.581 82.899 117.413 C 85.826 108.664 91.382 101.022 99.642 96.749 C 109.729 91.766 122.411 92.409 133.13 96.003 Z" fill="#048885" style="stroke-width: 1px;"/>
  <path d="M 119.928 0.461 C 123.587 2.103 124.325 5.295 125.869 8.846 C 126.717 10.644 127.574 12.442 128.448 14.234 C 128.851 15.08 129.253 15.928 129.668 16.806 C 133.845 24.048 141.839 27.63 148.989 31.382 C 150.924 32.427 150.924 32.427 151.661 33.164 C 152.011 37.887 152.011 37.887 150.717 39.501 C 149.414 40.562 148.179 41.299 146.674 42.044 C 145.872 42.45 145.872 42.45 145.054 42.869 C 143.945 43.423 142.833 43.975 141.721 44.527 C 131.797 49.592 127.919 57.132 123.877 67.128 C 122.921 69.272 122.921 69.272 121.448 70.744 C 119.007 70.929 119.007 70.929 116.289 70.007 C 114.64 67.756 113.681 65.201 112.605 62.638 C 107.931 52.207 102.945 47.652 92.834 42.346 C 92.27 42.044 91.705 41.75 91.126 41.44 C 90.359 41.042 90.359 41.042 89.576 40.636 C 88.287 39.796 88.287 39.796 86.813 37.586 C 86.599 35.139 86.599 35.139 87.55 32.427 C 89.96 30.578 92.641 29.348 95.38 28.049 C 104.133 23.843 108.61 19.649 112.007 10.504 C 115.595 1.013 115.595 1.013 119.928 0.461 Z" fill="#49E6DC" style="stroke-width: 1px;"/>
  <path d="M 366.012 200.304 C 366.588 200.303 367.163 200.301 367.755 200.3 C 369.656 200.298 371.556 200.317 373.457 200.337 C 374.795 200.341 376.134 200.343 377.472 200.345 C 380.288 200.349 383.102 200.365 385.917 200.388 C 389.469 200.417 393.021 200.429 396.572 200.437 C 405.084 200.456 413.594 200.523 422.105 200.651 C 422.637 200.658 423.171 200.667 423.72 200.674 C 426.87 200.724 430.02 200.801 433.17 200.895 C 433.907 200.91 434.646 200.926 435.406 200.943 C 436.064 200.967 436.723 200.992 437.401 201.018 C 437.96 201.037 438.518 201.054 439.091 201.072 C 440.949 201.479 441.614 202.076 442.738 203.598 C 443.259 207.706 443.259 207.706 442.738 209.494 C 440.547 211.918 438.815 212.642 435.642 212.816 C 434.247 212.833 432.851 212.834 431.456 212.822 C 430.692 212.828 429.929 212.833 429.141 212.837 C 426.619 212.851 424.097 212.842 421.575 212.833 C 419.822 212.834 418.068 212.837 416.314 212.84 C 412.639 212.845 408.965 212.839 405.29 212.825 C 400.58 212.808 395.869 212.817 391.158 212.836 C 387.536 212.847 383.916 212.844 380.295 212.836 C 378.558 212.833 376.821 212.836 375.084 212.844 C 372.657 212.85 370.23 212.839 367.803 212.822 C 366.725 212.831 366.725 212.831 365.625 212.84 C 362.443 212.8 360.679 212.732 357.917 211.035 C 356.417 209.38 356.016 208.748 356.059 206.546 C 356.05 206.06 356.041 205.573 356.031 205.072 C 357.55 200.497 361.852 200.23 366.012 200.304 Z" fill="#156263" style="stroke-width: 1px;"/>
  <path d="M 114.196 200.573 C 120.301 200.477 126.404 200.422 132.508 200.4 C 135.665 200.388 138.819 200.369 141.974 200.332 C 145.097 200.295 148.218 200.277 151.342 200.272 C 152.515 200.267 153.688 200.257 154.862 200.238 C 156.484 200.215 158.106 200.215 159.728 200.221 C 160.646 200.215 161.563 200.209 162.508 200.203 C 165.597 200.775 166.684 201.903 168.61 204.335 C 169.069 206.546 169.069 206.546 168.61 208.757 C 167.117 210.83 165.928 212.224 163.361 212.78 C 161.386 212.916 159.441 212.931 157.462 212.907 C 156.712 212.911 155.963 212.916 155.192 212.922 C 152.717 212.934 150.244 212.921 147.769 212.904 C 146.048 212.905 144.327 212.907 142.607 212.91 C 139.001 212.913 135.396 212.901 131.791 212.881 C 127.17 212.856 122.549 212.86 117.928 212.874 C 114.374 212.882 110.821 212.876 107.268 212.865 C 105.564 212.86 103.861 212.86 102.155 212.865 C 99.774 212.87 97.394 212.854 95.013 212.834 C 94.308 212.839 93.604 212.844 92.877 212.848 C 89.761 212.803 88.006 212.716 85.288 211.078 C 83.438 209.021 83.069 207.835 83.128 205.072 C 84.565 202.759 85.354 201.564 88.043 200.906 C 88.802 200.897 89.554 200.886 90.335 200.876 C 91.204 200.856 92.075 200.836 92.971 200.815 C 93.924 200.812 94.876 200.809 95.858 200.807 C 96.871 200.79 97.886 200.773 98.9 200.755 C 101.087 200.718 103.273 200.693 105.46 200.678 C 108.372 200.658 111.283 200.617 114.196 200.573 Z" fill="#166263" style="stroke-width: 1px;"/>
  <path d="M 362.942 143.849 C 367.172 147.357 370.382 151.113 371.995 156.436 C 372.1 159.708 371.835 160.932 369.692 163.39 C 367.041 164.832 365.391 164.928 362.415 164.542 C 360.477 163.322 359.953 161.853 358.869 159.798 C 356.984 156.37 354.306 154.715 350.625 153.489 C 343.128 152.85 337.241 154.148 331.35 158.896 C 327.743 162.151 325.089 165.836 322.608 169.994 C 321.885 171.174 321.885 171.174 321.148 171.911 C 318.027 172.272 316.479 172.233 313.825 170.483 C 312.066 167.87 311.758 166.445 311.957 163.353 C 313.246 156.846 318.558 150.537 323.814 146.731 C 335.334 139.166 350.812 135.279 362.942 143.849 Z" fill="#166263" style="stroke-width: 1px;"/>
  <path d="M 70.874 58.336 C 73.902 59.633 74.528 62.129 75.759 65.061 C 75.958 65.571 76.156 66.08 76.363 66.606 C 78.553 71.725 82.34 73.695 87.056 76.338 C 91.029 78.639 91.029 78.639 92.156 80.949 C 91.971 82.747 91.971 82.747 90.913 84.266 C 89.326 85.467 87.992 86.235 86.216 87.075 C 79.584 90.316 76.872 94.626 73.828 101.205 C 72.812 103.379 72.812 103.379 72.075 104.116 C 70.844 104.146 69.62 104.147 68.39 104.116 C 68.037 103.316 67.676 102.516 67.307 101.693 C 64.131 94.815 61.654 90.51 54.779 86.965 C 54.182 86.652 53.578 86.338 52.959 86.016 C 52.406 85.757 51.854 85.498 51.279 85.231 C 49.968 84.219 49.968 84.219 49.231 82.449 C 49.231 80.536 49.231 80.536 50.403 78.966 C 52.872 77.046 55.531 75.768 58.324 74.389 C 62.185 71.979 63.762 68.627 65.531 64.553 C 68.191 58.477 68.191 58.477 70.874 58.336 Z" fill="#47E7DC" style="stroke-width: 1px;"/>
  <path d="M 166.306 222.021 C 167.597 224.316 167.79 226.84 167.136 229.39 C 164.616 231.745 161.545 232.69 158.347 233.794 C 157.463 234.107 157.463 234.107 156.561 234.426 C 154.607 235.117 152.651 235.8 150.694 236.483 C 147.898 237.464 145.103 238.451 142.309 239.436 C 141.214 239.821 141.214 239.821 140.099 240.215 C 134.593 242.157 129.113 244.165 123.638 246.194 C 121.281 247.064 118.924 247.934 116.566 248.803 C 115.033 249.369 113.504 249.94 111.976 250.513 C 109.828 251.32 107.675 252.111 105.523 252.902 C 104.887 253.144 104.251 253.387 103.594 253.637 C 100.225 254.86 97.719 255.673 94.182 254.445 C 92.467 251.872 92.338 250.84 92.708 247.813 C 95.142 244.583 98.448 243.519 102.104 242.128 C 102.75 241.875 103.396 241.624 104.061 241.365 C 112.008 238.298 120.043 235.478 128.08 232.661 C 129.591 232.127 131.104 231.594 132.616 231.06 C 135.572 230.019 138.53 228.981 141.487 227.947 C 144.33 226.952 147.166 225.938 149.997 224.906 C 150.666 224.664 151.335 224.424 152.025 224.174 C 153.277 223.722 154.527 223.266 155.775 222.801 C 162.946 220.229 162.946 220.229 166.306 222.021 Z" fill="#156162" style="stroke-width: 1px;"/>
  <path d="M 365.097 222.541 C 367.454 223.306 369.787 224.123 372.119 224.96 C 372.994 225.268 373.872 225.575 374.774 225.893 C 376.635 226.548 378.496 227.208 380.354 227.873 C 383.12 228.861 385.891 229.834 388.664 230.807 C 398.039 234.115 407.355 237.549 416.616 241.166 C 417.484 241.504 418.352 241.841 419.247 242.188 C 420.455 242.666 420.455 242.666 421.689 243.152 C 422.394 243.431 423.098 243.709 423.826 243.995 C 425.848 244.891 427.664 245.799 429.474 247.076 C 430.435 250.129 430.546 251.563 429.106 254.445 C 427.263 255.919 427.263 255.919 425.006 255.797 C 421.569 255.184 418.372 253.942 415.119 252.706 C 414.445 252.454 413.771 252.203 413.076 251.944 C 410.88 251.124 408.686 250.297 406.492 249.471 C 403.434 248.327 400.376 247.186 397.317 246.045 C 396.551 245.758 395.784 245.471 394.993 245.177 C 390.082 243.343 385.16 241.541 380.225 239.77 C 379.612 239.55 378.999 239.331 378.368 239.103 C 376.052 238.273 373.735 237.445 371.415 236.62 C 369.85 236.064 368.285 235.505 366.722 234.946 C 365.849 234.636 364.976 234.326 364.077 234.007 C 358.065 231.671 358.065 231.671 355.783 229.39 C 355.381 224.965 355.381 224.965 356.567 222.804 C 359.347 221.279 362.144 221.751 365.097 222.541 Z" fill="#156162" style="stroke-width: 1px;"/>
  <path d="M 192.65 138.704 C 195.401 139.57 196.53 140.008 198.086 142.435 C 198.608 146.097 198.668 147.482 196.565 150.541 C 193.828 152.406 192.495 152.595 189.243 152.015 C 187.087 150.547 185.863 149.473 185.178 146.902 C 184.916 143.754 185.362 142.67 187.446 140.178 C 189.98 138.752 189.98 138.752 192.65 138.704 Z" fill="#F7FAFA" style="stroke-width: 1px;"/>
</svg>